<?xml version="1.0" encoding="UTF-8" standalone="no"?><svg xmlns="http://www.w3.org/2000/svg" xmlns:xlink="http://www.w3.org/1999/xlink" contentScriptType="application/ecmascript" contentStyleType="text/css" height="1137px" preserveAspectRatio="none" style="width:895px;height:1137px;" version="1.1" viewBox="0 0 895 1137" width="895px" zoomAndPan="magnify"><defs><filter height="300%" id="fu6y4tq3rzyab" width="300%" x="-1" y="-1"><feGaussianBlur result="blurOut" stdDeviation="2.0"/><feColorMatrix in="blurOut" result="blurOut2" type="matrix" values="0 0 0 0 0 0 0 0 0 0 0 0 0 0 0 0 0 0 .4 0"/><feOffset dx="4.0" dy="4.0" in="blurOut2" result="blurOut3"/><feBlend in="SourceGraphic" in2="blurOut3" mode="normal"/></filter></defs><g><!--MD5=[fd576c38855dbeb1606ac6d9c5bdb613]
cluster CENC--><rect fill="#FFFFFF" filter="url(#fu6y4tq3rzyab)" height="1102" style="stroke: #000000; stroke-width: 1.5;" width="862" x="22" y="24"/><text fill="#000000" font-family="sans-serif" font-size="14" font-weight="bold" lengthAdjust="spacingAndGlyphs" textLength="42" x="432" y="38.9951">CENC</text><!--MD5=[02661094591cd3f1c041902a3c99039f]
cluster CencDecrypt_element--><rect fill="#FFFFFF" filter="url(#fu6y4tq3rzyab)" height="125" style="stroke: #000000; stroke-width: 1.5;" width="499" x="312" y="67"/><text fill="#000000" font-family="sans-serif" font-size="14" font-weight="bold" lengthAdjust="spacingAndGlyphs" textLength="173" x="475" y="81.9951">CencDecrypt_element</text><!--MD5=[22267415cf1bdc0fef2c09ff736511ad]
class IGstDecryptor--><rect fill="#FEFECE" filter="url(#fu6y4tq3rzyab)" height="112.0234" id="IGstDecryptor" style="stroke: #A80036; stroke-width: 1.5;" width="366" x="502" y="236"/><ellipse cx="638.75" cy="252" fill="#B4A7E5" rx="11" ry="11" style="stroke: #A80036; stroke-width: 1.0;"/><path d="M634.6719,247.7656 L634.6719,245.6094 L642.0625,245.6094 L642.0625,247.7656 L639.5938,247.7656 L639.5938,255.8438 L642.0625,255.8438 L642.0625,258 L634.6719,258 L634.6719,255.8438 L637.1406,255.8438 L637.1406,247.7656 L634.6719,247.7656 Z "/><text fill="#000000" font-family="sans-serif" font-size="12" font-style="italic" lengthAdjust="spacingAndGlyphs" textLength="84" x="659.25" y="256.1543">IGstDecryptor</text><line style="stroke: #A80036; stroke-width: 1.5;" x1="503" x2="867" y1="268" y2="268"/><line style="stroke: #A80036; stroke-width: 1.5;" x1="503" x2="867" y1="276" y2="276"/><ellipse cx="513" cy="287" fill="#84BE84" rx="3" ry="3" style="stroke: #038048; stroke-width: 1.0;"/><text fill="#000000" font-family="sans-serif" font-size="11" font-style="italic" lengthAdjust="spacingAndGlyphs" textLength="257" x="522" y="290.2104">Initialize(std::unique_ptr&lt;IExchangeFactory&gt;,</text><text fill="#000000" font-family="sans-serif" font-size="11" font-style="italic" lengthAdjust="spacingAndGlyphs" textLength="167" x="582" y="303.0151">const std::string&amp; keysystem,</text><text fill="#000000" font-family="sans-serif" font-size="11" font-style="italic" lengthAdjust="spacingAndGlyphs" textLength="138" x="582" y="315.8198">const std::string&amp; origin,</text><text fill="#000000" font-family="sans-serif" font-size="11" font-style="italic" lengthAdjust="spacingAndGlyphs" textLength="183" x="582" y="328.6245">BufferView&amp; initData) : gboolean</text><ellipse cx="513" cy="338.2188" fill="#84BE84" rx="3" ry="3" style="stroke: #038048; stroke-width: 1.0;"/><text fill="#000000" font-family="sans-serif" font-size="11" font-style="italic" lengthAdjust="spacingAndGlyphs" textLength="340" x="522" y="341.4292">Decrypt(std::shared_ptr&lt;EncryptedBuffer&gt;) : GstFlowReturn</text><!--MD5=[c8f8701132fb16077e1afb65a4829ea6]
class Decryptor--><rect fill="#FEFECE" filter="url(#fu6y4tq3rzyab)" height="176.0469" id="Decryptor" style="stroke: #A80036; stroke-width: 1.5;" width="366" x="502" y="408"/><ellipse cx="632.25" cy="424" fill="#ADD1B2" rx="11" ry="11" style="stroke: #A80036; stroke-width: 1.0;"/><path d="M635.2188,429.6406 Q634.6406,429.9375 634,430.0781 Q633.3594,430.2344 632.6563,430.2344 Q630.1563,430.2344 628.8281,428.5938 Q627.5156,426.9375 627.5156,423.8125 Q627.5156,420.6875 628.8281,419.0313 Q630.1563,417.375 632.6563,417.375 Q633.3594,417.375 634,417.5313 Q634.6563,417.6875 635.2188,417.9844 L635.2188,420.7031 Q634.5938,420.125 634,419.8594 Q633.4063,419.5781 632.7813,419.5781 Q631.4375,419.5781 630.75,420.6563 Q630.0625,421.7188 630.0625,423.8125 Q630.0625,425.9063 630.75,426.9844 Q631.4375,428.0469 632.7813,428.0469 Q633.4063,428.0469 634,427.7813 Q634.5938,427.5 635.2188,426.9219 L635.2188,429.6406 Z "/><text fill="#000000" font-family="sans-serif" font-size="12" lengthAdjust="spacingAndGlyphs" textLength="97" x="652.75" y="428.1543">Decryptor</text><line style="stroke: #A80036; stroke-width: 1.5;" x1="503" x2="867" y1="440" y2="440"/><ellipse cx="513" cy="451" fill="#84BE84" rx="3" ry="3" style="stroke: #038048; stroke-width: 1.0;"/><text fill="#000000" font-family="sans-serif" font-size="11" lengthAdjust="spacingAndGlyphs" textLength="255" x="522" y="454.2104">Initialize(std::unique_ptr&lt;IExchangeFactory&gt;,</text><text fill="#000000" font-family="sans-serif" font-size="11" lengthAdjust="spacingAndGlyphs" textLength="171" x="582" y="467.0151">const std::string&amp; keysystem,</text><text fill="#000000" font-family="sans-serif" font-size="11" lengthAdjust="spacingAndGlyphs" textLength="142" x="582" y="479.8198">const std::string&amp; origin,</text><text fill="#000000" font-family="sans-serif" font-size="11" lengthAdjust="spacingAndGlyphs" textLength="183" x="582" y="492.6245">BufferView&amp; initData) : gboolean</text><ellipse cx="513" cy="502.2188" fill="#84BE84" rx="3" ry="3" style="stroke: #038048; stroke-width: 1.0;"/><text fill="#000000" font-family="sans-serif" font-size="11" lengthAdjust="spacingAndGlyphs" textLength="340" x="522" y="505.4292">Decrypt(std::shared_ptr&lt;EncryptedBuffer&gt;) : GstFlowReturn</text><line style="stroke: #A80036; stroke-width: 1.0;" x1="503" x2="867" y1="512.0234" y2="512.0234"/><rect fill="none" height="6" style="stroke: #C82930; stroke-width: 1.0;" width="6" x="510" y="520.0234"/><text fill="#000000" font-family="sans-serif" font-size="11" lengthAdjust="spacingAndGlyphs" textLength="171" x="522" y="526.2339">_system    : OpenCDMSystem*</text><rect fill="none" height="6" style="stroke: #C82930; stroke-width: 1.0;" width="6" x="510" y="532.8281"/><text fill="#000000" font-family="sans-serif" font-size="11" lengthAdjust="spacingAndGlyphs" textLength="174" x="522" y="539.0386">_session   : OpenCDMSession*</text><rect fill="none" height="6" style="stroke: #C82930; stroke-width: 1.0;" width="6" x="510" y="545.6328"/><text fill="#000000" font-family="sans-serif" font-size="11" lengthAdjust="spacingAndGlyphs" textLength="236" x="522" y="551.8433">_exchanger : std::unique_ptr&lt;IExchange&gt;</text><rect fill="none" height="6" style="stroke: #C82930; stroke-width: 1.0;" width="6" x="510" y="558.4375"/><text fill="#000000" font-family="sans-serif" font-size="11" lengthAdjust="spacingAndGlyphs" textLength="263" x="522" y="564.6479">_factory   : std::unique_ptr&lt;IExchangeFactory&gt;</text><rect fill="none" height="6" style="stroke: #C82930; stroke-width: 1.0;" width="6" x="510" y="571.2422"/><text fill="#000000" font-family="sans-serif" font-size="11" lengthAdjust="spacingAndGlyphs" textLength="220" x="522" y="577.4526">callbacks  : OpenCDMSessionCallbacks</text><!--MD5=[1404c1a13e39e282a326000d70ffa129]
class IExchange--><rect fill="#FEFECE" filter="url(#fu6y4tq3rzyab)" height="99.2188" id="IExchange" style="stroke: #A80036; stroke-width: 1.5;" width="311" x="556.5" y="644"/><ellipse cx="676.75" cy="660" fill="#B4A7E5" rx="11" ry="11" style="stroke: #A80036; stroke-width: 1.0;"/><path d="M672.6719,655.7656 L672.6719,653.6094 L680.0625,653.6094 L680.0625,655.7656 L677.5938,655.7656 L677.5938,663.8438 L680.0625,663.8438 L680.0625,666 L672.6719,666 L672.6719,663.8438 L675.1406,663.8438 L675.1406,655.7656 L672.6719,655.7656 Z "/><text fill="#000000" font-family="sans-serif" font-size="12" font-style="italic" lengthAdjust="spacingAndGlyphs" textLength="62" x="697.25" y="664.1543">IExchange</text><line style="stroke: #A80036; stroke-width: 1.5;" x1="557.5" x2="866.5" y1="676" y2="676"/><line style="stroke: #A80036; stroke-width: 1.5;" x1="557.5" x2="866.5" y1="684" y2="684"/><ellipse cx="567.5" cy="695" fill="#84BE84" rx="3" ry="3" style="stroke: #038048; stroke-width: 1.0;"/><text fill="#000000" font-family="sans-serif" font-size="11" font-style="italic" lengthAdjust="spacingAndGlyphs" textLength="240" x="576.5" y="698.2104">Submit(Core::ProxyType&lt;Web::Request&gt;,</text><text fill="#000000" font-family="sans-serif" font-size="11" font-style="italic" lengthAdjust="spacingAndGlyphs" textLength="234" x="624.5" y="711.0151">Core::ProxyType&lt;IExchange::ICallback&gt;,</text><text fill="#000000" font-family="sans-serif" font-size="11" font-style="italic" lengthAdjust="spacingAndGlyphs" textLength="103" x="624.5" y="723.8198">uint32_t waitTime)</text><ellipse cx="567.5" cy="733.4141" fill="#84BE84" rx="3" ry="3" style="stroke: #038048; stroke-width: 1.0;"/><text fill="#000000" font-family="sans-serif" font-size="11" font-style="italic" lengthAdjust="spacingAndGlyphs" textLength="172" x="576.5" y="736.6245">Revoke(IExchange::ICallback*)</text><!--MD5=[3f15d7a603fa73071871fc5533b08d44]
class IExchange::ICallback--><rect fill="#FEFECE" filter="url(#fu6y4tq3rzyab)" height="60.8047" id="IExchange::ICallback" style="stroke: #A80036; stroke-width: 1.5;" width="483" x="38.5" y="663"/><ellipse cx="213.75" cy="679" fill="#B4A7E5" rx="11" ry="11" style="stroke: #A80036; stroke-width: 1.0;"/><path d="M209.6719,674.7656 L209.6719,672.6094 L217.0625,672.6094 L217.0625,674.7656 L214.5938,674.7656 L214.5938,682.8438 L217.0625,682.8438 L217.0625,685 L209.6719,685 L209.6719,682.8438 L212.1406,682.8438 L212.1406,674.7656 L209.6719,674.7656 Z "/><text fill="#000000" font-family="sans-serif" font-size="12" font-style="italic" lengthAdjust="spacingAndGlyphs" textLength="124" x="234.25" y="683.1543">IExchange::ICallback</text><line style="stroke: #A80036; stroke-width: 1.5;" x1="39.5" x2="520.5" y1="695" y2="695"/><line style="stroke: #A80036; stroke-width: 1.5;" x1="39.5" x2="520.5" y1="703" y2="703"/><ellipse cx="49.5" cy="714" fill="#84BE84" rx="3" ry="3" style="stroke: #038048; stroke-width: 1.0;"/><text fill="#000000" font-family="sans-serif" font-size="11" lengthAdjust="spacingAndGlyphs" textLength="457" x="58.5" y="717.2104">Response(Core::ProxyType&lt;Web::Request&gt;, Core::ProxyType&lt;Web::Response&gt;)</text><!--MD5=[cdbe56b71a730d73a61a6d108db4859e]
class Exchanger--><rect fill="#FEFECE" filter="url(#fu6y4tq3rzyab)" height="99.2188" id="Exchanger" style="stroke: #A80036; stroke-width: 1.5;" width="307" x="558.5" y="803"/><ellipse cx="674.75" cy="819" fill="#ADD1B2" rx="11" ry="11" style="stroke: #A80036; stroke-width: 1.0;"/><path d="M677.7188,824.6406 Q677.1406,824.9375 676.5,825.0781 Q675.8594,825.2344 675.1563,825.2344 Q672.6563,825.2344 671.3281,823.5938 Q670.0156,821.9375 670.0156,818.8125 Q670.0156,815.6875 671.3281,814.0313 Q672.6563,812.375 675.1563,812.375 Q675.8594,812.375 676.5,812.5313 Q677.1563,812.6875 677.7188,812.9844 L677.7188,815.7031 Q677.0938,815.125 676.5,814.8594 Q675.9063,814.5781 675.2813,814.5781 Q673.9375,814.5781 673.25,815.6563 Q672.5625,816.7188 672.5625,818.8125 Q672.5625,820.9063 673.25,821.9844 Q673.9375,823.0469 675.2813,823.0469 Q675.9063,823.0469 676.5,822.7813 Q677.0938,822.5 677.7188,821.9219 L677.7188,824.6406 Z "/><text fill="#000000" font-family="sans-serif" font-size="12" lengthAdjust="spacingAndGlyphs" textLength="66" x="695.25" y="823.1543">Exchanger</text><line style="stroke: #A80036; stroke-width: 1.5;" x1="559.5" x2="864.5" y1="835" y2="835"/><line style="stroke: #A80036; stroke-width: 1.5;" x1="559.5" x2="864.5" y1="843" y2="843"/><ellipse cx="569.5" cy="854" fill="#84BE84" rx="3" ry="3" style="stroke: #038048; stroke-width: 1.0;"/><text fill="#000000" font-family="sans-serif" font-size="11" lengthAdjust="spacingAndGlyphs" textLength="236" x="578.5" y="857.2104">Submit(Core::ProxyType&lt;Web::Request&gt;,</text><text fill="#000000" font-family="sans-serif" font-size="11" lengthAdjust="spacingAndGlyphs" textLength="230" x="626.5" y="870.0151">Core::ProxyType&lt;IExchange::ICallback&gt;,</text><text fill="#000000" font-family="sans-serif" font-size="11" lengthAdjust="spacingAndGlyphs" textLength="103" x="626.5" y="882.8198">uint32_t waitTime)</text><ellipse cx="569.5" cy="892.4141" fill="#84BE84" rx="3" ry="3" style="stroke: #038048; stroke-width: 1.0;"/><text fill="#000000" font-family="sans-serif" font-size="11" lengthAdjust="spacingAndGlyphs" textLength="169" x="578.5" y="895.6245">Revoke(IExchange::ICallback*)</text><!--MD5=[ab5bdb20db294ba78963084223c99eee]
class OCMDResponseCallback--><rect fill="#FEFECE" filter="url(#fu6y4tq3rzyab)" height="60.8047" id="OCMDResponseCallback" style="stroke: #A80036; stroke-width: 1.5;" width="483" x="38.5" y="822"/><ellipse cx="200.75" cy="838" fill="#ADD1B2" rx="11" ry="11" style="stroke: #A80036; stroke-width: 1.0;"/><path d="M203.7188,843.6406 Q203.1406,843.9375 202.5,844.0781 Q201.8594,844.2344 201.1563,844.2344 Q198.6563,844.2344 197.3281,842.5938 Q196.0156,840.9375 196.0156,837.8125 Q196.0156,834.6875 197.3281,833.0313 Q198.6563,831.375 201.1563,831.375 Q201.8594,831.375 202.5,831.5313 Q203.1563,831.6875 203.7188,831.9844 L203.7188,834.7031 Q203.0938,834.125 202.5,833.8594 Q201.9063,833.5781 201.2813,833.5781 Q199.9375,833.5781 199.25,834.6563 Q198.5625,835.7188 198.5625,837.8125 Q198.5625,839.9063 199.25,840.9844 Q199.9375,842.0469 201.2813,842.0469 Q201.9063,842.0469 202.5,841.7813 Q203.0938,841.5 203.7188,840.9219 L203.7188,843.6406 Z "/><text fill="#000000" font-family="sans-serif" font-size="12" lengthAdjust="spacingAndGlyphs" textLength="150" x="221.25" y="842.1543">OCMDResponseCallback</text><line style="stroke: #A80036; stroke-width: 1.5;" x1="39.5" x2="520.5" y1="854" y2="854"/><line style="stroke: #A80036; stroke-width: 1.5;" x1="39.5" x2="520.5" y1="862" y2="862"/><ellipse cx="49.5" cy="873" fill="#84BE84" rx="3" ry="3" style="stroke: #038048; stroke-width: 1.0;"/><text fill="#000000" font-family="sans-serif" font-size="11" lengthAdjust="spacingAndGlyphs" textLength="457" x="58.5" y="876.2104">Response(Core::ProxyType&lt;Web::Request&gt;, Core::ProxyType&lt;Web::Response&gt;)</text><!--MD5=[8a3dd522f263f5303d0fa69cd9bbe3b0]
class Exchanger::Overwatch--><rect fill="#FEFECE" filter="url(#fu6y4tq3rzyab)" height="48" id="Exchanger::Overwatch" style="stroke: #A80036; stroke-width: 1.5;" width="171" x="626.5" y="962"/><ellipse cx="641.5" cy="978" fill="#ADD1B2" rx="11" ry="11" style="stroke: #A80036; stroke-width: 1.0;"/><path d="M644.4688,983.6406 Q643.8906,983.9375 643.25,984.0781 Q642.6094,984.2344 641.9063,984.2344 Q639.4063,984.2344 638.0781,982.5938 Q636.7656,980.9375 636.7656,977.8125 Q636.7656,974.6875 638.0781,973.0313 Q639.4063,971.375 641.9063,971.375 Q642.6094,971.375 643.25,971.5313 Q643.9063,971.6875 644.4688,971.9844 L644.4688,974.7031 Q643.8438,974.125 643.25,973.8594 Q642.6563,973.5781 642.0313,973.5781 Q640.6875,973.5781 640,974.6563 Q639.3125,975.7188 639.3125,977.8125 Q639.3125,979.9063 640,980.9844 Q640.6875,982.0469 642.0313,982.0469 Q642.6563,982.0469 643.25,981.7813 Q643.8438,981.5 644.4688,980.9219 L644.4688,983.6406 Z "/><text fill="#000000" font-family="sans-serif" font-size="12" lengthAdjust="spacingAndGlyphs" textLength="139" x="655.5" y="982.1543">Exchanger::Overwatch</text><line style="stroke: #A80036; stroke-width: 1.5;" x1="627.5" x2="796.5" y1="994" y2="994"/><line style="stroke: #A80036; stroke-width: 1.5;" x1="627.5" x2="796.5" y1="1002" y2="1002"/><path d="M638,1070 L638,1110.2656 A0,0 0 0 0 638,1110.2656 L828,1110.2656 A0,0 0 0 0 828,1110.2656 L828,1080 L818,1070 L733.03,1070 L716.77,1010.15 L725.03,1070 L638,1070 A0,0 0 0 0 638,1070 " fill="#FBFB77" filter="url(#fu6y4tq3rzyab)" style="stroke: #A80036; stroke-width: 1.0;"/><path d="M818,1070 L818,1080 L828,1080 L818,1070 " fill="#FBFB77" style="stroke: #A80036; stroke-width: 1.0;"/><text fill="#000000" font-family="sans-serif" font-size="13" lengthAdjust="spacingAndGlyphs" textLength="114" x="644" y="1087.0669">Dispatch job used</text><text fill="#000000" font-family="sans-serif" font-size="13" lengthAdjust="spacingAndGlyphs" textLength="165" x="648" y="1102.1997">for executing the request.</text><!--MD5=[d7fef3f5e4742d98852a1cbdd90d3ef7]
class Exchanger::Challenger--><rect fill="#FEFECE" filter="url(#fu6y4tq3rzyab)" height="48" id="Exchanger::Challenger" style="stroke: #A80036; stroke-width: 1.5;" width="173" x="407.5" y="962"/><ellipse cx="422.5" cy="978" fill="#ADD1B2" rx="11" ry="11" style="stroke: #A80036; stroke-width: 1.0;"/><path d="M425.4688,983.6406 Q424.8906,983.9375 424.25,984.0781 Q423.6094,984.2344 422.9063,984.2344 Q420.4063,984.2344 419.0781,982.5938 Q417.7656,980.9375 417.7656,977.8125 Q417.7656,974.6875 419.0781,973.0313 Q420.4063,971.375 422.9063,971.375 Q423.6094,971.375 424.25,971.5313 Q424.9063,971.6875 425.4688,971.9844 L425.4688,974.7031 Q424.8438,974.125 424.25,973.8594 Q423.6563,973.5781 423.0313,973.5781 Q421.6875,973.5781 421,974.6563 Q420.3125,975.7188 420.3125,977.8125 Q420.3125,979.9063 421,980.9844 Q421.6875,982.0469 423.0313,982.0469 Q423.6563,982.0469 424.25,981.7813 Q424.8438,981.5 425.4688,980.9219 L425.4688,983.6406 Z "/><text fill="#000000" font-family="sans-serif" font-size="12" lengthAdjust="spacingAndGlyphs" textLength="141" x="436.5" y="982.1543">Exchanger::Challenger</text><line style="stroke: #A80036; stroke-width: 1.5;" x1="408.5" x2="579.5" y1="994" y2="994"/><line style="stroke: #A80036; stroke-width: 1.5;" x1="408.5" x2="579.5" y1="1002" y2="1002"/><path d="M363,1070 L363,1110.2656 A0,0 0 0 0 363,1110.2656 L603,1110.2656 A0,0 0 0 0 603,1110.2656 L603,1080 L593,1070 L489.08,1070 L491.5,1010.15 L481.08,1070 L363,1070 A0,0 0 0 0 363,1070 " fill="#FBFB77" filter="url(#fu6y4tq3rzyab)" style="stroke: #A80036; stroke-width: 1.0;"/><path d="M593,1070 L593,1080 L603,1080 L593,1070 " fill="#FBFB77" style="stroke: #A80036; stroke-width: 1.0;"/><text fill="#000000" font-family="sans-serif" font-size="13" lengthAdjust="spacingAndGlyphs" textLength="182" x="369" y="1087.0669">Utility class used for sending</text><text fill="#000000" font-family="sans-serif" font-size="13" lengthAdjust="spacingAndGlyphs" textLength="215" x="373" y="1102.1997">request and retrieving responses.</text><!--MD5=[1baab0880177fbcdc43e8d8a7327da2f]
class GstCencDecrypt--><rect fill="#FEFECE" filter="url(#fu6y4tq3rzyab)" height="73.6094" id="GstCencDecrypt" style="stroke: #A80036; stroke-width: 1.5;" width="188" x="607" y="102"/><ellipse cx="647.2" cy="118" fill="#ADD1B2" rx="11" ry="11" style="stroke: #A80036; stroke-width: 1.0;"/><path d="M650.1688,123.6406 Q649.5906,123.9375 648.95,124.0781 Q648.3094,124.2344 647.6063,124.2344 Q645.1063,124.2344 643.7781,122.5938 Q642.4656,120.9375 642.4656,117.8125 Q642.4656,114.6875 643.7781,113.0313 Q645.1063,111.375 647.6063,111.375 Q648.3094,111.375 648.95,111.5313 Q649.6063,111.6875 650.1688,111.9844 L650.1688,114.7031 Q649.5438,114.125 648.95,113.8594 Q648.3563,113.5781 647.7313,113.5781 Q646.3875,113.5781 645.7,114.6563 Q645.0125,115.7188 645.0125,117.8125 Q645.0125,119.9063 645.7,120.9844 Q646.3875,122.0469 647.7313,122.0469 Q648.3563,122.0469 648.95,121.7813 Q649.5438,121.5 650.1688,120.9219 L650.1688,123.6406 Z "/><text fill="#000000" font-family="sans-serif" font-size="12" lengthAdjust="spacingAndGlyphs" textLength="100" x="666.8" y="122.1543">GstCencDecrypt</text><line style="stroke: #A80036; stroke-width: 1.5;" x1="608" x2="794" y1="134" y2="134"/><ellipse cx="618" cy="145" fill="none" rx="3" ry="3" style="stroke: #038048; stroke-width: 1.0;"/><text fill="#000000" font-family="sans-serif" font-size="11" lengthAdjust="spacingAndGlyphs" textLength="162" x="627" y="148.2104">parent : GstBaseTransform*</text><ellipse cx="618" cy="157.8047" fill="none" rx="3" ry="3" style="stroke: #038048; stroke-width: 1.0;"/><text fill="#000000" font-family="sans-serif" font-size="11" lengthAdjust="spacingAndGlyphs" textLength="128" x="627" y="161.0151">decryptor : IDecryptor*</text><line style="stroke: #A80036; stroke-width: 1.5;" x1="608" x2="794" y1="167.6094" y2="167.6094"/><!--MD5=[e37ed910d455485dd12df49d5cdab48c]
class GstCencDecryptClass--><rect fill="#FEFECE" filter="url(#fu6y4tq3rzyab)" height="60.8047" id="GstCencDecryptClass" style="stroke: #A80036; stroke-width: 1.5;" width="243" x="328.5" y="108.5"/><ellipse cx="379.25" cy="124.5" fill="#ADD1B2" rx="11" ry="11" style="stroke: #A80036; stroke-width: 1.0;"/><path d="M382.2188,130.1406 Q381.6406,130.4375 381,130.5781 Q380.3594,130.7344 379.6563,130.7344 Q377.1563,130.7344 375.8281,129.0938 Q374.5156,127.4375 374.5156,124.3125 Q374.5156,121.1875 375.8281,119.5313 Q377.1563,117.875 379.6563,117.875 Q380.3594,117.875 381,118.0313 Q381.6563,118.1875 382.2188,118.4844 L382.2188,121.2031 Q381.5938,120.625 381,120.3594 Q380.4063,120.0781 379.7813,120.0781 Q378.4375,120.0781 377.75,121.1563 Q377.0625,122.2188 377.0625,124.3125 Q377.0625,126.4063 377.75,127.4844 Q378.4375,128.5469 379.7813,128.5469 Q380.4063,128.5469 381,128.2813 Q381.5938,128 382.2188,127.4219 L382.2188,130.1406 Z "/><text fill="#000000" font-family="sans-serif" font-size="12" lengthAdjust="spacingAndGlyphs" textLength="133" x="399.75" y="128.6543">GstCencDecryptClass</text><line style="stroke: #A80036; stroke-width: 1.5;" x1="329.5" x2="570.5" y1="140.5" y2="140.5"/><ellipse cx="339.5" cy="151.5" fill="none" rx="3" ry="3" style="stroke: #038048; stroke-width: 1.0;"/><text fill="#000000" font-family="sans-serif" font-size="11" lengthAdjust="spacingAndGlyphs" textLength="217" x="348.5" y="154.7104">baseClass : GstBaseTransformClass*</text><line style="stroke: #A80036; stroke-width: 1.5;" x1="329.5" x2="570.5" y1="161.3047" y2="161.3047"/><!--MD5=[eb71ef77f2a6f3a6ff468649310ffef2]
reverse link GstCencDecrypt to IGstDecryptor--><path d="M695.77,189.34 C694.19,204.24 692.45,220.7 690.83,235.95 " fill="none" id="GstCencDecrypt&lt;-IGstDecryptor" style="stroke: #A80036; stroke-width: 1.0;"/><polygon fill="#A80036" points="697.17,176.17,692.5594,181.7146,695.9042,188.1031,700.5148,182.5585,697.17,176.17" style="stroke: #A80036; stroke-width: 1.0;"/><!--MD5=[36d48847e7f0c46709aeb384d354e1a6]
reverse link IGstDecryptor to Decryptor--><path d="M685,368.48 C685,381.36 685,394.83 685,407.98 " fill="none" id="IGstDecryptor&lt;-Decryptor" style="stroke: #A80036; stroke-width: 1.0;"/><polygon fill="none" points="678,368.2,685,348.2,692,368.2,678,368.2" style="stroke: #A80036; stroke-width: 1.0;"/><!--MD5=[01e0fb759451ba8beaf74533ade46dee]
reverse link IExchange to Exchanger--><path d="M712,763.64 C712,776.91 712,790.54 712,802.98 " fill="none" id="IExchange&lt;-Exchanger" style="stroke: #A80036; stroke-width: 1.0;"/><polygon fill="none" points="705,763.32,712,743.32,719,763.32,705,763.32" style="stroke: #A80036; stroke-width: 1.0;"/><!--MD5=[b9d1d1cd1c913ca8006b9c635a2edaef]
reverse link Decryptor to IExchange--><path d="M698.83,597.17 C701.08,613.4 703.31,629.54 705.27,643.8 " fill="none" id="Decryptor&lt;-IExchange" style="stroke: #A80036; stroke-width: 1.0;"/><polygon fill="#A80036" points="697.04,584.17,693.8954,590.6593,698.6761,596.0579,701.8207,589.5686,697.04,584.17" style="stroke: #A80036; stroke-width: 1.0;"/><!--MD5=[087e1c802db7066582b8aa21ad60ebb6]
reverse link IExchange::ICallback to OCMDResponseCallback--><path d="M280,729.09 C280,756.86 280,795.45 280,821.84 " fill="none" id="IExchange::ICallback&lt;-OCMDResponseCallback" style="stroke: #A80036; stroke-width: 1.0;"/><polygon fill="#A80036" points="280,724.03,276,733.03,280,729.03,284,733.03,280,724.03" style="stroke: #A80036; stroke-width: 1.0;"/><!--MD5=[ec0b8379385a25e311ffe547980e1cfe]
link IExchange::ICallback to IExchange--><!--MD5=[3797d21b3bf250a9d6a74e0893fcdb7a]
link Exchanger::Challenger to Exchanger::Overwatch--><!--MD5=[e14824623900226c878d768c6375ede4]
link Exchanger to Exchanger::Overwatch--><!--MD5=[f756ce7e58a68f257c5a7c0b235171ae]
link IExchange to GstCencDecryptClass--><!--MD5=[dc05d09991e6d51842f689712896a29e]
@startuml decryptor
skinparam maxMessageSize 100
skinparam wrapMessageWidth 100

package CENC <<Rectangle>> {

interface IGstDecryptor{
    
    {abstract} + Initialize(std::unique_ptr<IExchangeFactory>, \n                    const std::string& keysystem, \n                    const std::string& origin, \n                    BufferView& initData) : gboolean
    {abstract} + Decrypt(std::shared_ptr<EncryptedBuffer>) : GstFlowReturn
}

package CencDecrypt_element <<Rectangle>> {
    class GstCencDecrypt{
        + parent : GstBaseTransform*
        + decryptor : IDecryptor*
    }

    class GstCencDecryptClass {
        + baseClass : GstBaseTransformClass*
    }
}

class Decryptor{
    + Initialize(std::unique_ptr<IExchangeFactory>, \n                    const std::string& keysystem, \n                    const std::string& origin, \n                    BufferView& initData) : gboolean
    + Decrypt(std::shared_ptr<EncryptedBuffer>) : GstFlowReturn
    - - -
    - _system    : OpenCDMSystem*
    - _session   : OpenCDMSession*
    - _exchanger : std::unique_ptr<IExchange>
    - _factory   : std::unique_ptr<IExchangeFactory>
    - callbacks  : OpenCDMSessionCallbacks
}

interface IExchange{
    {abstract} + Submit(Core::ProxyType<Web::Request>, \n                Core::ProxyType<IExchange::ICallback>, \n                uint32_t waitTime)
    {abstract} + Revoke(IExchange::ICallback*)
}

interface IExchange::ICallback {
    + Response(Core::ProxyType<Web::Request>, Core::ProxyType<Web::Response>)
}

class Exchanger{
    + Submit(Core::ProxyType<Web::Request>, \n                Core::ProxyType<IExchange::ICallback>, \n                uint32_t waitTime)
    + Revoke(IExchange::ICallback*)
}

class OCMDResponseCallback{
    + Response(Core::ProxyType<Web::Request>, Core::ProxyType<Web::Response>)
}

class Exchanger::Overwatch
note bottom : Dispatch job used \n for executing the request.

class Exchanger::Challenger
note bottom : Utility class used for sending \n request and retrieving responses.


GstCencDecrypt *- - IGstDecryptor
IGstDecryptor <|- - Decryptor
IExchange <|- - Exchanger
Decryptor *- - IExchange
IExchange::ICallback <- - OCMDResponseCallback
IExchange::ICallback -[hidden]> IExchange
Exchanger::Challenger -[hidden]> Exchanger::Overwatch
Exchanger - -[hidden]> Exchanger::Overwatch
IExchange -[hidden]> GstCencDecryptClass

@enduml

PlantUML version 1.2020.10(Sun May 17 11:35:57 CEST 2020)
(GPL source distribution)
Java Runtime: OpenJDK Runtime Environment
JVM: OpenJDK 64-Bit Server VM
Java Version: 1.8.0_242-b08
Operating System: Linux
Default Encoding: UTF-8
Language: en
Country: US
--></g></svg>